<svg version="1.1" width="48" height="48" viewBox="0 0 48 48" xmlns="http://www.w3.org/2000/svg" xmlns:xlink="http://www.w3.org/1999/xlink" overflow="hidden"><style>
.MsftOfcThm_Background1_Fill {
 fill:#FFFFFF; 
}
</style>
<path d=" M 40 12 L 24 12 L 20 8 L 8 8 C 5.79 8 4.02 9.79 4.02 12 L 4 36 C 4 38.21 5.79 40 8 40 L 40 40 C 42.21 40 44 38.21 44 36 L 44 16 C 44 13.79 42.21 12 40 12 Z M 30 18 C 32.21 18 34 19.79 34 22 C 34 24.21 32.21 26 30 26 C 27.79 26 26 24.21 26 22 C 26 19.79 27.79 18 30 18 Z M 38 34 L 22 34 L 22 32 C 22 29.33 27.33 28 30 28 C 32.67 28 38 29.33 38 32 L 38 34 Z" stroke="none" stroke-width="1" stroke-dasharray="" stroke-dashoffset="1" fill="#FFFFFF" fill-opacity="1"/></svg>