<svg version="1.1" width="48" height="48" viewBox="0 0 48 48" xmlns="http://www.w3.org/2000/svg" xmlns:xlink="http://www.w3.org/1999/xlink" overflow="hidden"><path d=" M 32 22 C 35.31 22 37.98 19.31 37.98 16 C 37.98 12.69 35.31 10 32 10 C 28.69 10 26 12.69 26 16 C 26 19.31 28.69 22 32 22 Z M 16 22 C 19.31 22 21.98 19.31 21.98 16 C 21.98 12.69 19.31 10 16 10 C 12.69 10 10 12.69 10 16 C 10 19.31 12.69 22 16 22 Z M 16 26 C 11.33 26 2 28.34 2 33 L 2 38 L 30 38 L 30 33 C 30 28.34 20.67 26 16 26 Z M 32 26 C 31.42 26 30.77 26.04 30.07 26.11 C 32.39 27.78 34 30.03 34 33 L 34 38 L 46 38 L 46 33 C 46 28.34 36.67 26 32 26 Z" stroke="none" stroke-width="1" stroke-dasharray="" stroke-dashoffset="1" fill="#2ECC71" fill-opacity="1"/></svg>