<svg version="1.1" width="32" height="32" viewBox="0 0 32 32" xmlns="http://www.w3.org/2000/svg" xmlns:xlink="http://www.w3.org/1999/xlink" fill="#000000" overflow="hidden"><style>
.MsftOfcThm_Background1_Fill {
 fill:#FFFFFF; 
}
</style>
<g><path d=" M 10.05 23.95 C 10.44 24.34 11.074 24.34 11.464 23.95 L 17 18.414 L 22.536 23.95 C 22.926 24.34 23.56 24.34 23.95 23.95 C 24.34 23.56 24.34 22.926 23.95 22.536 L 18.414 17 L 23.95 11.464 C 24.34 11.074 24.34 10.44 23.95 10.05 C 23.56 9.66 22.926 9.66 22.536 10.05 L 17 15.586 L 11.464 10.05 C 11.074 9.66 10.44 9.66 10.05 10.05 C 9.66 10.44 9.66 11.074 10.05 11.464 L 15.586 17 L 10.05 22.536 C 9.66 22.926 9.66 23.56 10.05 23.95 Z" stroke="none" stroke-width="1" stroke-dasharray="" stroke-dashoffset="1" fill="#FFFFFF" fill-opacity="1"/></g></svg>