<svg version="1.1" width="48" height="48" viewBox="0 0 48 48" xmlns="http://www.w3.org/2000/svg" xmlns:xlink="http://www.w3.org/1999/xlink" overflow="hidden"><path d=" M 38 6 L 29.63 6 C 28.81 3.68 26.61 2 24 2 C 21.39 2 19.19 3.68 18.37 6 L 10 6 C 7.79 6 6 7.79 6 10 L 6 38 C 6 40.21 7.79 42 10 42 L 38 42 C 40.21 42 42 40.21 42 38 L 42 10 C 42 7.79 40.21 6 38 6 Z M 24 6 C 25.1 6 26 6.89 26 8 C 26 9.11 25.1 10 24 10 C 22.9 10 22 9.11 22 8 C 22 6.89 22.9 6 24 6 Z M 28 34 L 14 34 L 14 30 L 28 30 L 28 34 Z M 34 26 L 14 26 L 14 22 L 34 22 L 34 26 Z M 34 18 L 14 18 L 14 14 L 34 14 L 34 18 Z" stroke="none" stroke-width="1" stroke-dasharray="" stroke-dashoffset="1" fill="#2ECC71" fill-opacity="1"/></svg>