<svg width="24" height="24" viewBox="0 0 24 24" xmlns="http://www.w3.org/2000/svg" xmlns:xlink="http://www.w3.org/1999/xlink" fill="none" overflow="hidden"><path d="M14.5 13 2.5 13 2.5 11 14.5 11 14.5 13Z" fill="#2ECC71" fill-rule="evenodd" clip-rule="evenodd"/><path d="M11.7072 7.79291 15.2072 11.2929C15.5977 11.6834 15.5977 12.3166 15.2072 12.7071L11.7072 16.2071 10.293 14.7929 13.0859 12 10.293 9.20712 11.7072 7.79291Z" fill="#2ECC71" fill-rule="evenodd" clip-rule="evenodd"/><path d="M13.5004 5C10.7828 5 8.4252 6.54837 7.26472 8.81567L5.48438 7.90442C6.97351 4.995 10.0031 3 13.5004 3 18.471 3 22.5004 7.02944 22.5004 12 22.5004 16.9706 18.471 21 13.5004 21 10.0031 21 6.97351 19.005 5.48438 16.0956L7.26472 15.1843C8.4252 17.4516 10.7828 19 13.5004 19 17.3664 19 20.5004 15.866 20.5004 12 20.5004 8.13401 17.3664 5 13.5004 5Z" fill="#2ECC71" fill-rule="evenodd" clip-rule="evenodd"/></svg>