<svg version="1.1" width="48" height="48" viewBox="0 0 48 48" xmlns="http://www.w3.org/2000/svg" xmlns:xlink="http://www.w3.org/1999/xlink" overflow="hidden"><path d=" M 20.17 31.17 L 23 34 L 33 24 L 23 14 L 20.17 16.83 L 25.34 22 L 6 22 L 6 26 L 25.34 26 L 20.17 31.17 Z M 38 6 L 10 6 C 7.79 6 6 7.79 6 10 L 6 18 L 10 18 L 10 10 L 38 10 L 38 38 L 10 38 L 10 30 L 6 30 L 6 38 C 6 40.21 7.79 42 10 42 L 38 42 C 40.21 42 42 40.21 42 38 L 42 10 C 42 7.79 40.21 6 38 6 Z" stroke="none" stroke-width="1" stroke-dasharray="" stroke-dashoffset="1" fill="#2ECC71" fill-opacity="1"/></svg>