<svg version="1.1" width="48" height="48" viewBox="0 0 48 48" xmlns="http://www.w3.org/2000/svg" xmlns:xlink="http://www.w3.org/1999/xlink" overflow="hidden"><style>
.MsftOfcThm_Background1_Fill {
 fill:#FFFFFF; 
}
</style>
<path d=" M 36 16 L 34 16 L 34 12 C 34 6.48 29.52 2 24 2 C 18.48 2 14 6.48 14 12 L 14 16 L 12 16 C 9.79 16 8 17.79 8 20 L 8 40 C 8 42.21 9.79 44 12 44 L 36 44 C 38.21 44 40 42.21 40 40 L 40 20 C 40 17.79 38.21 16 36 16 Z M 24 34 C 21.79 34 20 32.21 20 30 C 20 27.79 21.79 26 24 26 C 26.21 26 28 27.79 28 30 C 28 32.21 26.21 34 24 34 Z M 30.2 16 L 17.8 16 L 17.8 12 C 17.8 8.58 20.58 5.8 24 5.8 C 27.42 5.8 30.2 8.58 30.2 12 L 30.2 16 Z" stroke="none" stroke-width="1" stroke-dasharray="" stroke-dashoffset="1" fill="#FFFFFF" fill-opacity="1"/></svg>