<svg width="32.248" height="32.248" viewBox="0 0 32.248 32.248" xmlns="http://www.w3.org/2000/svg" xmlns:xlink="http://www.w3.org/1999/xlink" overflow="hidden"><g><path d="M19 0C11.82 0 6 5.82 6 13 6 16.09 7.084 18.926 8.884 21.158L0.292 29.75C-0.248 30.29-0.248 31.168 0.292 31.708 0.832 32.248 1.71 32.248 2.25 31.708L10.842 23.116C13.074 24.916 15.91 26 19 26 26.18 26 32 20.18 32 13 32 5.82 26.18 0 19 0ZM19 24C12.934 24 8 19.066 8 13 8 6.934 12.934 2 19 2 25.066 2 30 6.934 30 13 30 19.066 25.066 24 19 24Z" fill="#5C5C5C"/></g></svg>