<svg version="1.1" width="32.248" height="32.248" viewBox="0 0 32.248 32.248" xmlns="http://www.w3.org/2000/svg" xmlns:xlink="http://www.w3.org/1999/xlink" fill="#000000" overflow="hidden"><style>
.MsftOfcThm_Background1_Fill {
 fill:#FFFFFF; 
}
</style>
<g><path d=" M 19 0 C 11.82 0 6 5.82 6 13 C 6 16.09 7.084 18.926 8.884 21.158 L 0.292 29.75 C -0.248 30.29 -0.248 31.168 0.292 31.708 C 0.832 32.248 1.71 32.248 2.25 31.708 L 10.842 23.116 C 13.074 24.916 15.91 26 19 26 C 26.18 26 32 20.18 32 13 C 32 5.82 26.18 0 19 0 Z M 19 24 C 12.934 24 8 19.066 8 13 C 8 6.934 12.934 2 19 2 C 25.066 2 30 6.934 30 13 C 30 19.066 25.066 24 19 24 Z" stroke="none" stroke-width="1" stroke-dasharray="" stroke-dashoffset="1" fill="#FFFFFF" fill-opacity="1"/></g></svg>